<?xml version="1.0" encoding="UTF-8" standalone="no"?>
<!DOCTYPE svg PUBLIC "-//W3C//DTD SVG 1.1//EN" "http://www.w3.org/Graphics/SVG/1.1/DTD/svg11.dtd">
<svg version="1.1" xmlns="http://www.w3.org/2000/svg" xmlns:xlink="http://www.w3.org/1999/xlink" preserveAspectRatio="xMidYMid meet" viewBox="0 0 1460 753" width="1460" height="753"><defs><path d="M243.48 11.87L251.62 13.03L259.66 14.51L267.59 16.3L275.4 18.39L283.08 20.79L290.63 23.47L298.04 26.43L305.31 29.68L312.42 33.19L319.38 36.97L326.17 41.01L332.78 45.3L339.22 49.83L345.47 54.61L351.54 59.61L357.4 64.84L363.06 70.28L368.5 75.94L373.73 81.8L378.73 87.86L383.51 94.12L388.04 100.56L392.33 107.17L396.37 113.96L400.14 120.92L403.66 128.03L406.9 135.29L409.87 142.71L412.55 150.26L414.94 157.94L417.04 165.75L418.83 173.68L420.31 181.72L421.47 189.86L422.31 198.11L422.82 206.45L422.99 214.87L1025.55 214.87L1025.72 206.45L1026.23 198.11L1027.07 189.86L1028.23 181.72L1029.71 173.68L1031.5 165.75L1033.59 157.94L1035.98 150.26L1038.67 142.71L1041.63 135.29L1044.88 128.03L1048.39 120.92L1052.17 113.96L1056.21 107.17L1060.5 100.56L1065.03 94.12L1069.8 87.86L1074.81 81.8L1080.03 75.94L1085.48 70.28L1091.14 64.84L1097 59.61L1103.06 54.61L1109.32 49.83L1115.75 45.3L1122.37 41.01L1129.16 36.97L1136.11 33.19L1143.23 29.68L1150.49 26.43L1157.9 23.47L1165.45 20.79L1173.14 18.39L1180.95 16.3L1188.87 14.51L1196.91 13.03L1205.06 11.87L1213.31 11.03L1221.64 10.52L1230.07 10.35L1238.49 10.52L1246.83 11.03L1255.08 11.87L1263.23 13.03L1271.27 14.51L1279.19 16.3L1287 18.39L1294.68 20.79L1302.23 23.47L1309.65 26.43L1316.91 29.68L1324.02 33.19L1330.98 36.97L1337.77 41.01L1344.39 45.3L1350.82 49.83L1357.08 54.61L1363.14 59.61L1369 64.84L1374.66 70.28L1380.1 75.94L1385.33 81.8L1390.34 87.86L1395.11 94.12L1399.64 100.56L1403.93 107.17L1407.97 113.96L1411.75 120.92L1415.26 128.03L1418.51 135.29L1421.47 142.71L1424.16 150.26L1426.55 157.94L1428.64 165.75L1430.43 173.68L1431.91 181.72L1433.07 189.86L1433.91 198.11L1434.42 206.45L1434.59 214.87L1434.42 223.3L1433.91 231.63L1433.07 239.88L1431.91 248.03L1430.43 256.07L1428.64 264L1426.55 271.8L1424.16 279.49L1421.47 287.04L1418.51 294.45L1415.26 301.71L1411.75 308.83L1407.97 315.78L1403.93 322.57L1399.64 329.19L1395.11 335.63L1390.34 341.88L1385.33 347.94L1380.1 353.8L1374.66 359.46L1369 364.91L1363.39 369.91L1369 374.91L1374.66 380.36L1380.1 386.02L1385.33 391.88L1390.34 397.94L1395.11 404.2L1399.64 410.63L1403.93 417.25L1407.97 424.04L1411.75 430.99L1415.26 438.11L1418.51 445.37L1421.47 452.78L1424.16 460.33L1426.55 468.02L1428.64 475.83L1430.43 483.75L1431.91 491.79L1433.07 499.94L1433.91 508.19L1434.42 516.52L1434.59 524.95L1434.42 533.37L1433.91 541.71L1433.07 549.96L1431.91 558.1L1430.43 566.15L1428.64 574.07L1426.55 581.88L1424.16 589.56L1421.47 597.11L1418.51 604.53L1415.26 611.79L1411.75 618.9L1407.97 625.86L1403.93 632.65L1399.64 639.26L1395.11 645.7L1390.34 651.96L1385.33 658.02L1380.1 663.88L1374.66 669.54L1369 674.98L1363.14 680.21L1357.08 685.21L1350.82 689.99L1344.39 694.52L1337.77 698.81L1330.98 702.85L1324.02 706.63L1316.91 710.14L1309.65 713.39L1302.23 716.35L1294.68 719.03L1287 721.43L1279.19 723.52L1271.27 725.31L1263.23 726.79L1255.08 727.95L1246.83 728.79L1238.49 729.3L1230.07 729.47L1221.64 729.3L1213.31 728.79L1205.06 727.95L1196.91 726.79L1188.87 725.31L1180.95 723.52L1173.14 721.43L1165.45 719.03L1157.9 716.35L1150.49 713.39L1143.23 710.14L1136.11 706.63L1129.16 702.85L1122.37 698.81L1115.75 694.52L1109.32 689.99L1103.06 685.21L1097 680.21L1091.14 674.98L1085.48 669.54L1080.03 663.88L1074.81 658.02L1069.8 651.96L1065.03 645.7L1060.5 639.26L1056.21 632.65L1052.17 625.86L1048.39 618.9L1044.88 611.79L1041.63 604.53L1038.67 597.11L1035.98 589.56L1033.59 581.88L1031.5 574.07L1029.71 566.15L1028.23 558.1L1027.07 549.96L1026.23 541.71L1025.72 533.37L1025.55 524.95L422.99 524.95L422.82 533.37L422.31 541.71L421.47 549.96L420.31 558.1L418.83 566.15L417.04 574.07L414.94 581.88L412.55 589.56L409.87 597.11L406.9 604.53L403.66 611.79L400.14 618.9L396.37 625.86L392.33 632.65L388.04 639.26L383.51 645.7L378.73 651.96L373.73 658.02L368.5 663.88L363.06 669.54L357.4 674.98L351.54 680.21L345.47 685.21L339.22 689.99L332.78 694.52L326.17 698.81L319.38 702.85L312.42 706.63L305.31 710.14L298.04 713.39L290.63 716.35L283.08 719.03L275.4 721.43L267.59 723.52L259.66 725.31L251.62 726.79L243.48 727.95L235.23 728.79L226.89 729.3L218.47 729.47L210.04 729.3L201.7 728.79L193.46 727.95L185.31 726.79L177.27 725.31L169.34 723.52L161.54 721.43L153.85 719.03L146.3 716.35L138.89 713.39L131.63 710.14L124.51 706.63L117.56 702.85L110.77 698.81L104.15 694.52L97.71 689.99L91.46 685.21L85.4 680.21L79.54 674.98L73.88 669.54L68.43 663.88L63.2 658.02L58.2 651.96L53.43 645.7L48.9 639.26L44.61 632.65L40.57 625.86L36.79 618.9L33.28 611.79L30.03 604.53L27.06 597.11L24.38 589.56L21.99 581.88L19.9 574.07L18.11 566.15L16.63 558.1L15.46 549.96L14.63 541.71L14.12 533.37L13.95 524.95L14.12 516.52L14.63 508.19L15.46 499.94L16.63 491.79L18.11 483.75L19.9 475.83L21.99 468.02L24.38 460.33L27.06 452.78L30.03 445.37L33.28 438.11L36.79 430.99L40.57 424.04L44.61 417.25L48.9 410.63L53.43 404.2L58.2 397.94L63.2 391.88L68.43 386.02L73.88 380.36L79.54 374.91L85.15 369.91L79.54 364.91L73.88 359.46L68.43 353.8L63.2 347.94L58.2 341.88L53.43 335.63L48.9 329.19L44.61 322.57L40.57 315.78L36.79 308.83L33.28 301.71L30.03 294.45L27.06 287.04L24.38 279.49L21.99 271.8L19.9 264L18.11 256.07L16.63 248.03L15.46 239.88L14.63 231.63L14.12 223.3L13.95 214.87L14.12 206.45L14.63 198.11L15.46 189.86L16.63 181.72L18.11 173.68L19.9 165.75L21.99 157.94L24.38 150.26L27.06 142.71L30.03 135.29L33.28 128.03L36.79 120.92L40.57 113.96L44.61 107.17L48.9 100.56L53.43 94.12L58.2 87.86L63.2 81.8L68.43 75.94L73.88 70.28L79.54 64.84L85.4 59.61L91.46 54.61L97.71 49.83L104.15 45.3L110.77 41.01L117.56 36.97L124.51 33.19L131.63 29.68L138.89 26.43L146.3 23.47L153.85 20.79L161.54 18.39L169.34 16.3L177.27 14.51L185.31 13.03L193.46 11.87L201.7 11.03L210.04 10.52L218.47 10.35L226.89 10.52L235.23 11.03L235.23 11.03L243.48 11.87Z" id="d15wfYK0nI"></path></defs><g><g><g><g><filter id="shadow5006751" x="-39.05" y="-42.65" width="1541.64" height="840.12" filterUnits="userSpaceOnUse" primitiveUnits="userSpaceOnUse"><feFlood></feFlood><feComposite in2="SourceAlpha" operator="in"></feComposite><feGaussianBlur stdDeviation="3.87"></feGaussianBlur><feOffset dx="15" dy="15" result="afterOffset"></feOffset><feFlood flood-color="#7f716a" flood-opacity="0.5"></feFlood><feComposite in2="afterOffset" operator="in"></feComposite><feMorphology operator="dilate" radius="3"></feMorphology><feComposite in2="SourceAlpha" operator="out"></feComposite></filter><path d="M243.48 11.87L251.62 13.03L259.66 14.51L267.59 16.3L275.4 18.39L283.08 20.79L290.63 23.47L298.04 26.43L305.31 29.68L312.42 33.19L319.38 36.97L326.17 41.01L332.78 45.3L339.22 49.83L345.47 54.61L351.54 59.61L357.4 64.84L363.06 70.28L368.5 75.94L373.73 81.8L378.73 87.86L383.51 94.12L388.04 100.56L392.33 107.17L396.37 113.96L400.14 120.92L403.66 128.03L406.9 135.29L409.87 142.71L412.55 150.26L414.94 157.94L417.04 165.75L418.83 173.68L420.31 181.72L421.47 189.86L422.31 198.11L422.82 206.45L422.99 214.87L1025.55 214.87L1025.72 206.45L1026.23 198.11L1027.07 189.86L1028.23 181.72L1029.71 173.68L1031.5 165.75L1033.59 157.94L1035.98 150.26L1038.67 142.71L1041.63 135.29L1044.88 128.03L1048.39 120.92L1052.17 113.96L1056.21 107.17L1060.5 100.56L1065.03 94.12L1069.8 87.86L1074.81 81.8L1080.03 75.94L1085.48 70.28L1091.14 64.84L1097 59.61L1103.06 54.61L1109.32 49.83L1115.75 45.3L1122.37 41.01L1129.16 36.97L1136.11 33.19L1143.23 29.68L1150.49 26.43L1157.9 23.47L1165.45 20.79L1173.14 18.39L1180.95 16.3L1188.87 14.51L1196.91 13.03L1205.06 11.87L1213.31 11.03L1221.64 10.52L1230.07 10.35L1238.49 10.52L1246.83 11.03L1255.08 11.87L1263.23 13.03L1271.27 14.51L1279.19 16.3L1287 18.39L1294.68 20.79L1302.23 23.47L1309.65 26.43L1316.91 29.68L1324.02 33.19L1330.98 36.97L1337.77 41.01L1344.39 45.3L1350.82 49.83L1357.08 54.61L1363.14 59.61L1369 64.84L1374.66 70.28L1380.1 75.94L1385.33 81.8L1390.34 87.86L1395.11 94.12L1399.64 100.56L1403.93 107.17L1407.97 113.96L1411.75 120.92L1415.26 128.03L1418.51 135.29L1421.47 142.71L1424.16 150.26L1426.55 157.94L1428.64 165.75L1430.43 173.68L1431.91 181.72L1433.07 189.86L1433.91 198.11L1434.42 206.45L1434.59 214.87L1434.42 223.3L1433.91 231.63L1433.07 239.88L1431.91 248.03L1430.43 256.07L1428.64 264L1426.55 271.8L1424.16 279.49L1421.47 287.04L1418.51 294.45L1415.26 301.71L1411.75 308.83L1407.97 315.78L1403.93 322.57L1399.64 329.19L1395.11 335.63L1390.34 341.88L1385.33 347.94L1380.1 353.8L1374.66 359.46L1369 364.91L1363.39 369.91L1369 374.91L1374.66 380.36L1380.1 386.02L1385.33 391.88L1390.34 397.94L1395.11 404.2L1399.64 410.63L1403.93 417.25L1407.97 424.04L1411.75 430.99L1415.26 438.11L1418.51 445.37L1421.47 452.78L1424.16 460.33L1426.55 468.02L1428.64 475.83L1430.43 483.75L1431.91 491.79L1433.07 499.94L1433.91 508.19L1434.42 516.52L1434.59 524.95L1434.42 533.37L1433.91 541.71L1433.07 549.96L1431.91 558.1L1430.43 566.15L1428.64 574.07L1426.55 581.88L1424.16 589.56L1421.47 597.11L1418.51 604.53L1415.26 611.79L1411.75 618.9L1407.97 625.86L1403.93 632.65L1399.64 639.26L1395.11 645.7L1390.34 651.96L1385.33 658.02L1380.1 663.88L1374.66 669.54L1369 674.98L1363.14 680.21L1357.08 685.21L1350.82 689.99L1344.39 694.52L1337.77 698.81L1330.98 702.85L1324.02 706.63L1316.91 710.14L1309.65 713.39L1302.23 716.35L1294.68 719.03L1287 721.43L1279.19 723.52L1271.27 725.31L1263.23 726.79L1255.08 727.95L1246.83 728.79L1238.49 729.3L1230.07 729.47L1221.64 729.3L1213.31 728.79L1205.06 727.95L1196.91 726.79L1188.87 725.31L1180.95 723.52L1173.14 721.43L1165.45 719.03L1157.9 716.35L1150.49 713.39L1143.23 710.14L1136.11 706.63L1129.16 702.85L1122.37 698.81L1115.75 694.52L1109.32 689.99L1103.06 685.21L1097 680.21L1091.14 674.98L1085.48 669.54L1080.03 663.88L1074.81 658.02L1069.8 651.96L1065.03 645.7L1060.5 639.26L1056.21 632.65L1052.17 625.86L1048.39 618.9L1044.88 611.79L1041.63 604.53L1038.67 597.11L1035.98 589.56L1033.59 581.88L1031.5 574.07L1029.71 566.15L1028.23 558.1L1027.07 549.96L1026.23 541.71L1025.72 533.37L1025.55 524.95L422.99 524.95L422.82 533.37L422.31 541.71L421.47 549.96L420.31 558.1L418.83 566.15L417.04 574.07L414.94 581.88L412.55 589.56L409.87 597.11L406.9 604.53L403.66 611.79L400.14 618.9L396.37 625.86L392.33 632.65L388.04 639.26L383.51 645.7L378.73 651.96L373.73 658.02L368.5 663.88L363.06 669.54L357.4 674.98L351.54 680.21L345.47 685.21L339.22 689.99L332.78 694.52L326.17 698.81L319.38 702.85L312.42 706.63L305.31 710.14L298.04 713.39L290.63 716.35L283.08 719.03L275.4 721.43L267.59 723.52L259.66 725.31L251.62 726.79L243.48 727.95L235.23 728.79L226.89 729.3L218.47 729.47L210.04 729.3L201.7 728.79L193.46 727.95L185.31 726.79L177.27 725.31L169.34 723.52L161.54 721.43L153.85 719.03L146.3 716.35L138.89 713.39L131.63 710.14L124.51 706.63L117.56 702.85L110.77 698.81L104.15 694.52L97.71 689.99L91.46 685.21L85.4 680.21L79.54 674.98L73.88 669.54L68.43 663.88L63.2 658.02L58.2 651.96L53.43 645.7L48.9 639.26L44.61 632.65L40.57 625.86L36.79 618.9L33.28 611.79L30.03 604.53L27.06 597.11L24.38 589.56L21.99 581.88L19.9 574.07L18.11 566.15L16.63 558.1L15.46 549.96L14.63 541.71L14.12 533.37L13.95 524.95L14.12 516.52L14.63 508.19L15.46 499.94L16.63 491.79L18.11 483.75L19.9 475.83L21.99 468.02L24.38 460.33L27.06 452.78L30.03 445.37L33.28 438.11L36.79 430.99L40.57 424.04L44.61 417.25L48.9 410.63L53.43 404.2L58.2 397.94L63.2 391.88L68.43 386.02L73.88 380.36L79.54 374.91L85.15 369.91L79.54 364.91L73.88 359.46L68.43 353.8L63.2 347.94L58.2 341.88L53.43 335.63L48.9 329.19L44.61 322.57L40.57 315.78L36.79 308.83L33.28 301.71L30.03 294.45L27.06 287.04L24.38 279.49L21.99 271.8L19.9 264L18.11 256.07L16.63 248.03L15.46 239.88L14.63 231.63L14.12 223.3L13.95 214.87L14.12 206.45L14.63 198.11L15.46 189.86L16.63 181.72L18.11 173.68L19.9 165.75L21.99 157.94L24.38 150.26L27.06 142.71L30.03 135.29L33.28 128.03L36.79 120.92L40.57 113.96L44.61 107.17L48.9 100.56L53.43 94.12L58.2 87.86L63.2 81.8L68.43 75.94L73.88 70.28L79.54 64.84L85.4 59.61L91.46 54.61L97.71 49.83L104.15 45.3L110.77 41.01L117.56 36.97L124.51 33.19L131.63 29.68L138.89 26.43L146.3 23.47L153.85 20.79L161.54 18.39L169.34 16.3L177.27 14.51L185.31 13.03L193.46 11.87L201.7 11.03L210.04 10.52L218.47 10.35L226.89 10.52L235.23 11.03L235.23 11.03L243.48 11.87Z" id="bfC8ABSYf" fill="white" fill-opacity="1" filter="url(#shadow5006751)"></path></g><use xlink:href="#d15wfYK0nI" opacity="1" fill="#ffe2d4" fill-opacity="1"></use></g></g></g></svg>