<?xml version="1.0" encoding="utf-8"?>
<!-- Svg Vector Icons : http://www.onlinewebfonts.com/icon -->
<!DOCTYPE svg PUBLIC "-//W3C//DTD SVG 1.1//EN" "http://www.w3.org/Graphics/SVG/1.1/DTD/svg11.dtd">
<svg version="1.1" xmlns="http://www.w3.org/2000/svg" xmlns:xlink="http://www.w3.org/1999/xlink" x="0px" y="0px" viewBox="0 0 1000 1000" enable-background="new 0 0 1000 1000" xml:space="preserve">
<metadata> Svg Vector Icons : http://www.onlinewebfonts.com/icon </metadata>
<g><g><path d="M950.8,507.6c-90.1,134.1-253.7,3.4-388,18.7c1.9-36.3-10.7-82.9-69.1-127.9c-177.2-138.5-376.8,95.5-376,78.3c0.9-17.2-6.5-41.9-44.7-37c-34.8,4.5-26.7,49.9-18.1,74.9c8.6,24.9-28.4,67.6-28.4,67.6c-42.1,52.5,9.5,63.3,9.5,63.3s332.1,0,410.4,0c78.3,0,98.9-42.7,98.9-42.7c1.6-3.8,5-17.4,8.4-26.7c153.7-39.6,315.4,130.2,432.7-44.4C1001.3,509.6,965.5,485.6,950.8,507.6z" fill="#ffe2d4"/></g><g></g><g></g><g></g><g></g><g></g><g></g><g></g><g></g><g></g><g></g><g></g><g></g><g></g><g></g><g></g></g>
</svg>